<svg xmlns="http://www.w3.org/2000/svg" viewBox="0 0 590.32 124.24"><defs><style>.cls-1{font-size:83.61px;letter-spacing:-0.04em;}.cls-1,.cls-4,.cls-5{fill:#fff;}.cls-1,.cls-4{font-family:AristaPro-ExtraLight, Arista Pro;font-weight:200;}.cls-2{letter-spacing:-0.05em;}.cls-3{letter-spacing:-0.04em;}.cls-4{font-size:33.91px;letter-spacing:0.53em;}</style></defs><g id="Capa_2" data-name="Capa 2"><g id="Capa_1-2" data-name="Capa 1"><text class="cls-1" transform="translate(169.01 68.75)">M<tspan class="cls-2" x="59.98" y="0">A</tspan><tspan class="cls-3" x="104.28" y="0">OGÓMEZ</tspan></text><text class="cls-4" transform="translate(169.74 113.9)">DISEÑO / WEB </text><path class="cls-5" d="M10.7,112.19H2.56c-1.66,0-2.56-.6-2.56-1.65a4.21,4.21,0,0,1,.15-1.36.55.55,0,0,1,.15-.45L44.45,2.65l-.15.15c.15-.15.15-.45.3-.6.45-.76.76-1.81,3-1.81h5c2.41,0,2.56,1.2,3.16,2V2.5L70.67,38.81,85.74,2.65l-.15.15a1.14,1.14,0,0,0,.3-.6c.6-.76.75-1.81,3-1.81H94c2.41,0,2.56,1.2,3,2V1.89l.15.61L141,108.73l.15.75a3.43,3.43,0,0,1,.15,1.06c0,1-.9,1.65-2.71,1.65h-8a3.43,3.43,0,0,1-3.31-2.26v.16c-5.88-15.68-30.74-77-35.87-89.66l-14,34.51L99.6,108.73l.15.75a3.43,3.43,0,0,1,.15,1.06c0,1-.9,1.65-2.56,1.65H44c-1.66,0-2.56-.6-2.56-1.65v-1.36a.55.55,0,0,1,.15-.45L64,54.78C57.86,39.26,52.14,25.7,50.18,20.43c-5.28,12.66-30.29,74-36.32,89.66A3.18,3.18,0,0,1,10.7,112.19Zm60-40.83C66,82.81,61.78,93.66,58.62,101.5h24.1Z"/></g></g></svg>