<svg xmlns="http://www.w3.org/2000/svg" xmlns:xlink="http://www.w3.org/1999/xlink" viewBox="0 0 376 376"><defs><style>.cls-1{fill:#fff;}.cls-2{font-size:50.85px;letter-spacing:-0.04em;}.cls-2,.cls-4{fill:#009fe3;font-family:AristaPro-ExtraLight, Arista Pro;font-weight:200;}.cls-3{letter-spacing:-0.05em;}.cls-4{font-size:20.62px;letter-spacing:0.53em;}.cls-5{fill:url(#Degradado_sin_nombre_90);}</style><linearGradient id="Degradado_sin_nombre_90" x1="189.07" y1="225.03" x2="189.07" y2="54" gradientUnits="userSpaceOnUse"><stop offset="0.41" stop-color="#1d71b8"/><stop offset="1" stop-color="#009fe3"/></linearGradient></defs><g id="Capa_2" data-name="Capa 2"><g id="Capa_1-2" data-name="Capa 1"><circle class="cls-1" cx="188" cy="188" r="188"/><text class="cls-2" transform="translate(74.03 281.46)">M<tspan class="cls-3" x="36.48" y="0">A</tspan><tspan x="63.43" y="0">OGÓMEZ</tspan></text><text class="cls-4" transform="translate(74.47 313.18)">DISEÑO / WEB </text><path class="cls-5" d="M89.48,228.2H76c-2.75,0-4.25-1-4.25-2.75a7,7,0,0,1,.25-2.26.92.92,0,0,1,.25-.75L145.53,46.28l-.25.25c.25-.25.25-.75.5-1,.75-1.25,1.26-3,5-3h8.26c4,0,4.25,2,5.25,3.25V46l24.77,60.31,25-60.06-.25.25a1.9,1.9,0,0,0,.5-1c1-1.25,1.25-3,5-3h8.51c4,0,4.25,2,5,3.25V45l.25,1,72.82,176.41.25,1.25a5.68,5.68,0,0,1,.25,1.76c0,1.75-1.5,2.75-4.5,2.75H288.67a5.72,5.72,0,0,1-5.51-3.76v.26c-9.76-26-51.05-127.87-59.55-148.89l-23.28,57.3,36.79,89.33.25,1.25a5.68,5.68,0,0,1,.25,1.76c0,1.75-1.5,2.75-4.26,2.75H144.78c-2.75,0-4.25-1-4.25-2.75v-2.26a.92.92,0,0,1,.25-.75l37.28-89.58c-10.26-25.77-19.76-48.29-23-57.05-8.76,21-50.29,122.86-60.3,148.89A5.3,5.3,0,0,1,89.48,228.2Zm99.59-67.81c-7.75,19-14.76,37-20,50h40Z"/></g></g></svg>